<svg width="60" height="60" viewBox="0 0 60 60" fill="none" xmlns="http://www.w3.org/2000/svg">
<path d="M28.8003 15.6V22.8C28.8003 24.1255 29.8749 25.2 31.2003 25.2H38.4003M43.2003 6H26.3998C23.7488 6 21.5998 8.14902 21.5998 10.8V15.6M43.2003 6H44.5392C45.2151 6 45.8584 6.28467 46.324 6.77456C47.0238 7.51076 48.1322 8.64428 49.2003 9.6C50.0375 10.349 51.3527 11.6933 52.1403 12.5103C52.5662 12.9521 52.8003 13.542 52.8003 14.1557L52.8003 15.6M43.2003 6V13.2C43.2003 14.5255 44.2749 15.6 45.6003 15.6H52.8003M52.8003 15.6L52.7997 39.6001C52.7996 42.251 50.6506 44.4 47.9997 44.4H38.3996M34.8003 19.2C33.7322 18.2443 32.6238 17.1108 31.924 16.3746C31.4584 15.8847 30.8151 15.6 30.1392 15.6H11.9998C9.34882 15.6 7.19979 17.749 7.19977 20.4L7.19958 49.1999C7.19957 51.8508 9.34859 53.9999 11.9996 53.9999L33.5997 54C36.2506 54 38.3996 51.851 38.3997 49.2001L38.4003 23.7557C38.4003 23.142 38.1662 22.5521 37.7403 22.1103C36.9527 21.2933 35.6375 19.949 34.8003 19.2Z" stroke="#080075" stroke-width="2" stroke-linecap="round" stroke-linejoin="round"/>
</svg>
