<svg width="32" height="32" viewBox="0 0 32 32" fill="none" xmlns="http://www.w3.org/2000/svg">
<path d="M7.08823 25.9179C7.89933 24.0069 9.79307 22.6667 11.9998 22.6667H19.9998C22.2066 22.6667 24.1003 24.0069 24.9114 25.9179M21.3332 12.6667C21.3332 15.6122 18.9454 18 15.9998 18C13.0543 18 10.6665 15.6122 10.6665 12.6667C10.6665 9.72115 13.0543 7.33333 15.9998 7.33333C18.9454 7.33333 21.3332 9.72115 21.3332 12.6667ZM29.3332 16C29.3332 23.3638 23.3636 29.3333 15.9998 29.3333C8.63604 29.3333 2.6665 23.3638 2.6665 16C2.6665 8.6362 8.63604 2.66667 15.9998 2.66667C23.3636 2.66667 29.3332 8.6362 29.3332 16Z" stroke="url(#paint0_linear_34_63)" stroke-width="2.2" stroke-linecap="round" stroke-linejoin="round"/>
<defs>
<linearGradient id="paint0_linear_34_63" x1="2.6665" y1="16" x2="29.3332" y2="16" gradientUnits="userSpaceOnUse">
<stop stop-color="#6258E4"/>
<stop offset="1" stop-color="#140A95"/>
</linearGradient>
</defs>
</svg>
